# xmcd CD database file generated by Grip 3.0.3
# 
# Track frame offsets:
#       150
#       23725
#       52920
#       97977
#       123290
#       143912
#       181717
# 
# Disc length: 2671 seconds
# 
# Revision: 2
# Processed by: cddbd v1.4PL0 Copyright (c) Steve Scherf et al.
# Submitted via: Grip 3.0.3
# 
DISCID=4d0a6d07
DTITLE=Sonny Sharrock - Seize The Rainbow
DYEAR=1987
DGENRE=Blues
TTITLE0=Dick Dogs
TTITLE1=My Song
TTITLE2=Fourteen
TTITLE3=J. D. Schaa
TTITLE4=Seize The Rainbow
TTITLE5=The Past Adventures Of Zydeco Honeycup
TTITLE6=Sheraserhead's Hightop Sneakers
EXTD=
EXTT0=
EXTT1=
EXTT2=
EXTT3=
EXTT4=
EXTT5=
EXTT6=
PLAYORDER=
